<svg xmlns="http://www.w3.org/2000/svg" xmlns:xlink="http://www.w3.org/1999/xlink" width="500" zoomAndPan="magnify" viewBox="0 0 375 374.999991" height="500" preserveAspectRatio="xMidYMid meet" version="1.0"><defs><clipPath id="5d1bc3d2d2"><path d="M 132 64.339844 L 270 64.339844 L 270 266.089844 L 132 266.089844 Z M 132 64.339844 " clip-rule="nonzero"/></clipPath><clipPath id="a3ba6df13b"><path d="M 70.050781 139 L 88 139 L 88 192 L 70.050781 192 Z M 70.050781 139 " clip-rule="nonzero"/></clipPath><clipPath id="180b801e4a"><path d="M 286 139 L 304.773438 139 L 304.773438 192 L 286 192 Z M 286 139 " clip-rule="nonzero"/></clipPath></defs><rect x="-37.5" width="450" fill="#ffffff" y="-37.499999" height="449.999989" fill-opacity="1"/><rect x="-37.5" width="450" fill="#ffffff" y="-37.499999" height="449.999989" fill-opacity="1"/><g clip-path="url(#5d1bc3d2d2)"><path fill="#00a6ff" d="M 132.253906 206.519531 L 132.253906 123.894531 C 132.253906 115.578125 135.820312 107.941406 141.96875 102.695312 L 141.96875 73.492188 C 141.96875 68.484375 146.058594 64.386719 151.058594 64.386719 C 156.058594 64.386719 160.148438 68.484375 160.148438 73.492188 L 160.148438 95.9375 C 164.933594 95.941406 169.714844 97.199219 174.0625 99.714844 L 178.308594 102.171875 L 178.308594 92.359375 C 178.308594 87.351562 182.398438 83.253906 187.398438 83.253906 L 187.402344 83.253906 C 192.398438 83.253906 196.488281 87.351562 196.488281 92.359375 L 196.488281 112.683594 L 214.652344 123.1875 L 214.652344 73.492188 C 214.652344 68.484375 218.738281 64.386719 223.738281 64.386719 C 228.738281 64.386719 232.828125 68.484375 232.828125 73.492188 L 232.828125 133.703125 L 245.5 141.03125 C 247.527344 142.203125 249.363281 143.59375 250.988281 145.160156 L 250.988281 106.128906 C 250.988281 101.121094 255.078125 97.023438 260.078125 97.023438 C 265.078125 97.023438 269.167969 101.121094 269.167969 106.128906 L 269.167969 224.285156 C 269.167969 229.296875 265.078125 233.390625 260.078125 233.390625 C 255.078125 233.390625 250.988281 229.296875 250.988281 224.285156 L 250.988281 185.253906 C 249.363281 186.820312 247.527344 188.210938 245.5 189.382812 L 232.828125 196.710938 L 232.828125 256.921875 C 232.828125 261.929688 228.738281 266.023438 223.738281 266.023438 C 218.742188 266.023438 214.652344 261.929688 214.652344 256.921875 L 214.652344 207.222656 L 196.492188 217.726562 L 196.492188 238.054688 C 196.492188 243.0625 192.398438 247.15625 187.402344 247.15625 L 187.398438 247.15625 C 182.398438 247.15625 178.308594 243.0625 178.308594 238.054688 L 178.308594 228.242188 L 174.0625 230.699219 C 169.71875 233.214844 164.933594 234.472656 160.148438 234.476562 L 160.148438 256.921875 C 160.148438 261.929688 156.058594 266.023438 151.058594 266.023438 C 146.058594 266.023438 141.96875 261.929688 141.96875 256.921875 L 141.96875 227.71875 C 135.820312 222.472656 132.253906 214.839844 132.253906 206.519531 Z M 132.253906 206.519531 " fill-opacity="1" fill-rule="nonzero"/></g><path fill="#ffffff" d="M 150.414062 206.519531 L 150.414062 123.894531 C 150.414062 120.320312 152.183594 117.253906 155.273438 115.46875 L 155.34375 115.425781 L 155.417969 115.386719 L 155.5625 115.308594 L 155.566406 115.308594 L 155.636719 115.265625 L 155.707031 115.230469 L 155.710938 115.230469 L 155.785156 115.191406 L 155.855469 115.15625 L 155.859375 115.15625 L 155.929688 115.117188 L 156.003906 115.085938 L 156.007812 115.082031 L 156.078125 115.046875 L 156.148438 115.015625 L 156.152344 115.011719 L 156.230469 114.980469 L 156.296875 114.949219 L 156.304688 114.945312 L 156.378906 114.914062 L 156.445312 114.882812 L 156.453125 114.882812 L 156.527344 114.851562 L 156.597656 114.824219 L 156.601562 114.820312 L 156.679688 114.792969 L 156.746094 114.765625 L 156.753906 114.761719 L 156.832031 114.734375 L 156.898438 114.707031 L 156.90625 114.707031 L 156.980469 114.679688 L 157.050781 114.65625 L 157.058594 114.652344 L 157.132812 114.625 L 157.203125 114.605469 L 157.210938 114.601562 L 157.289062 114.578125 L 157.355469 114.554688 L 157.363281 114.554688 L 157.441406 114.527344 L 157.503906 114.507812 L 157.515625 114.507812 L 157.59375 114.484375 L 157.660156 114.46875 L 157.671875 114.464844 L 157.746094 114.441406 L 157.8125 114.425781 L 157.824219 114.421875 L 157.898438 114.402344 L 157.964844 114.386719 L 157.976562 114.386719 L 158.117188 114.351562 L 158.128906 114.351562 L 158.207031 114.332031 L 158.273438 114.320312 L 158.285156 114.316406 L 158.363281 114.300781 L 158.425781 114.289062 L 158.4375 114.289062 L 158.515625 114.273438 L 158.578125 114.261719 L 158.59375 114.261719 L 158.671875 114.246094 L 158.734375 114.238281 L 158.75 114.234375 L 158.828125 114.222656 L 158.886719 114.214844 L 158.902344 114.214844 L 158.980469 114.203125 L 159.042969 114.195312 L 159.058594 114.191406 L 159.136719 114.183594 L 159.195312 114.179688 L 159.214844 114.175781 L 159.292969 114.167969 L 159.351562 114.164062 L 159.371094 114.164062 L 159.449219 114.15625 L 159.507812 114.152344 L 159.523438 114.152344 L 159.605469 114.144531 L 159.660156 114.144531 L 159.679688 114.140625 L 159.757812 114.136719 L 159.835938 114.136719 L 159.914062 114.132812 L 160.148438 114.132812 C 161.796875 114.136719 163.445312 114.582031 164.980469 115.472656 L 178.308594 123.179688 L 196.492188 133.691406 L 214.652344 144.195312 L 232.832031 154.710938 L 236.421875 156.785156 C 239.511719 158.570312 241.28125 161.636719 241.28125 165.207031 C 241.28125 168.78125 239.511719 171.847656 236.421875 173.632812 L 232.832031 175.710938 L 214.652344 186.222656 L 196.492188 196.726562 L 178.308594 207.238281 L 164.984375 214.945312 C 163.441406 215.820312 161.792969 216.277344 160.148438 216.285156 L 159.972656 216.285156 L 159.914062 216.28125 L 159.816406 216.28125 L 159.757812 216.277344 L 159.679688 216.273438 L 159.660156 216.273438 L 159.605469 216.269531 L 159.523438 216.265625 L 159.507812 216.265625 L 159.449219 216.261719 L 159.371094 216.253906 L 159.351562 216.253906 L 159.292969 216.246094 L 159.214844 216.238281 L 159.195312 216.238281 L 159.136719 216.230469 L 159.058594 216.222656 L 159.042969 216.21875 L 158.980469 216.210938 L 158.902344 216.203125 L 158.886719 216.199219 L 158.828125 216.191406 L 158.75 216.179688 L 158.734375 216.175781 L 158.671875 216.167969 L 158.59375 216.152344 L 158.578125 216.152344 L 158.515625 216.140625 L 158.4375 216.125 L 158.425781 216.125 L 158.363281 216.113281 L 158.285156 216.097656 L 158.273438 216.09375 L 158.207031 216.078125 L 158.128906 216.0625 L 158.117188 216.058594 L 158.054688 216.046875 L 157.976562 216.027344 L 157.964844 216.027344 L 157.898438 216.011719 L 157.824219 215.992188 L 157.8125 215.988281 L 157.746094 215.972656 L 157.667969 215.953125 L 157.660156 215.949219 L 157.59375 215.929688 L 157.515625 215.910156 L 157.503906 215.90625 L 157.4375 215.886719 L 157.363281 215.863281 L 157.355469 215.859375 L 157.285156 215.839844 L 157.210938 215.8125 L 157.203125 215.8125 L 157.132812 215.789062 L 157.058594 215.761719 L 157.050781 215.761719 L 156.980469 215.738281 L 156.90625 215.707031 L 156.898438 215.707031 L 156.828125 215.679688 L 156.753906 215.652344 L 156.746094 215.648438 L 156.679688 215.621094 L 156.601562 215.59375 L 156.597656 215.589844 L 156.527344 215.5625 L 156.453125 215.53125 L 156.445312 215.53125 L 156.378906 215.5 L 156.304688 215.46875 L 156.296875 215.464844 L 156.230469 215.433594 L 156.152344 215.402344 L 156.148438 215.398438 L 156.078125 215.367188 L 156.003906 215.332031 L 156.003906 215.328125 L 155.929688 215.296875 L 155.859375 215.261719 L 155.855469 215.257812 L 155.785156 215.222656 L 155.710938 215.183594 L 155.707031 215.183594 L 155.636719 215.148438 L 155.566406 215.109375 L 155.5625 215.105469 L 155.417969 215.027344 L 155.34375 214.984375 L 155.273438 214.941406 C 152.183594 213.160156 150.414062 210.09375 150.414062 206.519531 " fill-opacity="1" fill-rule="nonzero"/><g clip-path="url(#a3ba6df13b)"><path fill="#00a6ff" d="M 78.925781 139.113281 C 83.820312 139.113281 87.828125 143.125 87.828125 148.027344 L 87.828125 182.386719 C 87.828125 187.289062 83.820312 191.300781 78.925781 191.300781 C 74.03125 191.300781 70.023438 187.289062 70.023438 182.386719 L 70.023438 148.027344 C 70.023438 143.125 74.03125 139.113281 78.925781 139.113281 Z M 78.925781 139.113281 " fill-opacity="1" fill-rule="nonzero"/></g><g clip-path="url(#180b801e4a)"><path fill="#00a6ff" d="M 295.875 139.113281 C 290.976562 139.113281 286.972656 143.125 286.972656 148.027344 L 286.972656 182.386719 C 286.972656 187.289062 290.976562 191.300781 295.875 191.300781 C 300.769531 191.300781 304.773438 187.289062 304.773438 182.386719 L 304.773438 148.027344 C 304.773438 143.125 300.769531 139.113281 295.875 139.113281 Z M 295.875 139.113281 " fill-opacity="1" fill-rule="nonzero"/></g><path fill="#00a6ff" d="M 114.714844 97.023438 L 114.71875 97.023438 C 119.71875 97.023438 123.808594 101.121094 123.808594 106.128906 L 123.808594 224.285156 C 123.808594 229.292969 119.71875 233.390625 114.71875 233.390625 L 114.714844 233.390625 C 109.71875 233.390625 105.628906 229.292969 105.628906 224.285156 L 105.628906 106.128906 C 105.628906 101.121094 109.714844 97.023438 114.714844 97.023438 Z M 114.714844 97.023438 " fill-opacity="1" fill-rule="nonzero"/></svg>